<svg fill="none" viewBox="0 0 155 35" class="logo svelte-wxuhbp"><path fill="#06000d" d="M17.5 17.2v16.4c0 .5-.5 1-1.1 1H1a1 1 0 0 1-.3 0H.5l-.2-.2a1 1 0 0 1-.4-.8c.5-9.2 8.2-16.4 17.5-16.4v-5.6a1.4 1.4 0 0 1 .3-1l.3-.2L34.1.2A1.4 1.4 0 0 1 35 0c.2 0 .5 0 .7.2L43 4.8l8.8 5.5.3.3c.2.2.3.5.3.9v22c0 .3 0 .5-.2.7a1 1 0 0 1-.8.4H35.8a.8.8 0 0 1-.9-.7 16.5 16.5 0 0 0-.1-1.7V32l-.2-.6v-.2l-.2-.7v-.1l-.2-.7v-.1a18.1 18.1 0 0 0-.3-.8 17.5 17.5 0 0 0-15.5-11.6H17.5Z"></path><path fill="#06000d" d="M69.5 10.7h10.2c2.3 0 4 .6 5.4 1.7a6 6 0 0 1 2 4.8 6 6 0 0 1-.6 2.5c-.4.8-.9 1.4-1.6 2a6.3 6.3 0 0 1 3.1 5.7c0 2.3-.7 4-2.2 5.3a9 9 0 0 1-6 2H69.4v-24Zm10.3 9.5c1 0 1.9-.3 2.5-.9a3 3 0 0 0 1-2.3c0-1-.4-1.7-1-2.2-.6-.6-1.5-.9-2.5-.9h-6.4v6.3h6.4Zm.2 11c1.3 0 2.3-.3 3-1 .8-.7 1.2-1.6 1.2-2.8 0-1.2-.4-2.1-1.1-2.8-.8-.7-1.8-1-3-1h-6.7v7.6H80Zm14.4 2.6A9 9 0 0 1 90 26a8.8 8.8 0 0 1 4.5-7.9c1.4-.8 3-1.2 4.7-1.2a9.1 9.1 0 0 1 7.9 4.4 8.8 8.8 0 0 1 1.2 4.7 9 9 0 0 1-9.1 9.1c-1.7 0-3.3-.4-4.7-1.2Zm7.4-3a5 5 0 0 0 2-2 6 6 0 0 0 .6-2.9c0-1-.2-2-.7-3a5.1 5.1 0 0 0-4.6-2.7c-1 0-2 .3-2.8.7-.8.5-1.4 1.2-1.9 2-.4 1-.7 2-.7 3s.3 2 .7 3c.5.8 1.1 1.5 2 2 .7.5 1.7.7 2.7.7 1 0 1.9-.2 2.7-.7Zm13.6 3.8h3.3l7-17.4h-4L117 29.4l-4.6-12.2h-4l6.9 17.4Zm25.8-1a4.5 4.5 0 0 1-1.7-3.6c0-1.4.5-2.6 1.5-3.5a8 8 0 0 1 4.5-2l5.5-1V23c0-.8-.3-1.5-1-2-.6-.6-1.4-1-2.5-1-1 0-1.8.3-2.5.8s-1.3 1.2-1.6 2l-3-1.5a6 6 0 0 1 1.5-2.3c.8-.6 1.6-1.1 2.6-1.5 1-.4 2-.6 3.1-.6 1.4 0 2.6.3 3.7.8 1 .5 1.9 1.2 2.5 2.2.6.9 1 2 1 3.1v8.2l.2 3.5h-3.5l-.2-1v-1c-.7.8-1.6 1.4-2.5 1.8-1 .4-2 .6-3.3.6-1.8 0-3.2-.5-4.3-1.3Zm3-2c.4.3 1 .5 1.9.5 1 0 1.8-.2 2.6-.6.7-.4 1.3-1 1.7-1.7.4-.7.6-1.5.6-2.4v-1l-4.8.9c-1 .1-1.7.4-2.2.9-.4.4-.6 1-.6 1.7s.2 1.2.7 1.6Zm-12.7-11.9v-2.5H128v17.4h3.6v-6.8c0-1.5.3-3.2 1-4.3.5-1 1.3-1.7 2.3-2.2 1-.5 2.1-.9 4-.9V17c-2-.1-4.5.6-5.7 1.3-.7.5-1.3 1-1.6 1.4Z"></path></svg>