<?xml version="1.0" encoding="UTF-8" standalone="no"?>
<!-- Created with Inkscape (http://www.inkscape.org/) -->

<svg
   xmlns:dc="http://purl.org/dc/elements/1.1/"
   xmlns:cc="http://creativecommons.org/ns#"
   xmlns:rdf="http://www.w3.org/1999/02/22-rdf-syntax-ns#"
   xmlns:svg="http://www.w3.org/2000/svg"
   xmlns="http://www.w3.org/2000/svg"
   xmlns:sodipodi="http://sodipodi.sourceforge.net/DTD/sodipodi-0.dtd"
   xmlns:inkscape="http://www.inkscape.org/namespaces/inkscape"
   width="100%"
   height="100%"
   id="svg3943"
   version="1.1"
   inkscape:version="0.48.4 r9939"
   sodipodi:docname="Etimo-blue-transparent.svg">
  <defs
     id="defs3945" />
  <sodipodi:namedview
     id="base"
     pagecolor="#000000"
     bordercolor="#666666"
     borderopacity="1.0"
     inkscape:pageopacity="0"
     inkscape:pageshadow="2"
     inkscape:zoom="0.35"
     inkscape:cx="-70.714286"
     inkscape:cy="520"
     inkscape:document-units="px"
     inkscape:current-layer="layer1"
     showgrid="false"
     inkscape:window-width="1920"
     inkscape:window-height="1017"
     inkscape:window-x="-8"
     inkscape:window-y="-8"
     inkscape:window-maximized="1" />
  <metadata
     id="metadata3948">
    <rdf:RDF>
      <cc:Work
         rdf:about="">
        <dc:format>image/svg+xml</dc:format>
        <dc:type
           rdf:resource="http://purl.org/dc/dcmitype/StillImage" />
        <dc:title></dc:title>
      </cc:Work>
    </rdf:RDF>
  </metadata>
  <g
     inkscape:label="Layer 1"
     inkscape:groupmode="layer"
     id="layer1"
     transform="translate(0,-614.36217)">
    <text
       xml:space="preserve"
       style="font-size:213.55578613000000000px;font-style:normal;font-variant:normal;font-weight:normal;font-stretch:normal;text-align:start;line-height:125%;letter-spacing:0px;word-spacing:0px;writing-mode:lr-tb;text-anchor:start;fill:#2c3e50;fill-opacity:1;stroke:none;font-family:Segoe UI;-inkscape-font-specification:Segoe UI"
       x="340.39624"
       y="907.85956"
       id="text3016-0-4"
       sodipodi:linespacing="125%"
       inkscape:export-filename="C:\Users\Joakim\path7-8.png"
       inkscape:export-xdpi="33.75"
       inkscape:export-ydpi="33.75"><tspan
         sodipodi:role="line"
         id="tspan3018-9-8"
         x="340.39624"
         y="907.85956">ETIMO</tspan></text>
    <path
       style="fill:#2c3e50;fill-opacity:1"
       inkscape:connector-curvature="0"
       d="m 128.01515,747.71618 c -7.18668,0 -13.01515,5.8219 -13.01515,13.01185 0,7.17679 5.8219,12.99534 13.00857,13.00525 7.18337,0 13.00855,-5.82188 13.00855,-13.00525 0.002,-7.17677 -5.81855,-13.01185 -13.00197,-13.01185 z m 82.61072,133.16129 32.33025,0 0,-108.37385 -32.33025,0 z M 226.7959,729.39673 c -10.05145,-0.0106 -18.21724,8.15262 -18.21724,18.20735 0,10.04818 8.14925,18.20405 18.20406,18.21402 10.05475,0 18.20738,-8.14934 18.21728,-18.2041 0.002,-10.05806 -8.14599,-18.21727 -18.2041,-18.21727 z m -49.39364,47.43543 c -10.65809,0 -19.29857,8.63713 -19.29857,19.29848 0,10.64817 8.63058,19.29858 19.28866,19.30847 10.66136,0 19.29856,-8.63722 19.30845,-19.29852 0,-10.66135 -8.63722,-19.29856 -19.29854,-19.30843 z m -60.9386,79.08634 23.08646,0 0,-77.41167 -23.08646,0 z m 43.80591,81.44367 34.25874,0 0,-114.85831 -34.25874,0 z"
       id="path7-8"
       sodipodi:nodetypes="ssccsccccccsccccsccccccccccccc"
       inkscape:export-xdpi="33.75"
       inkscape:export-ydpi="33.75" />
  </g>
</svg>
